<mxfile host="Electron" modified="2023-08-04T12:24:53.640Z" agent="Mozilla/5.0 (Windows NT 10.0; Win64; x64) AppleWebKit/537.36 (KHTML, like Gecko) draw.io/21.6.5 Chrome/114.0.5735.243 Electron/25.3.1 Safari/537.36" etag="la8izb6Dtxho_-BcJLHC" version="21.6.5" type="device">
  <diagram name="Seite-1" id="sbyrDctoeEZ5p_Q2V6t7">
    <mxGraphModel dx="1634" dy="955" grid="1" gridSize="10" guides="1" tooltips="1" connect="1" arrows="1" fold="1" page="1" pageScale="1" pageWidth="827" pageHeight="1169" math="0" shadow="0">
      <root>
        <mxCell id="0" />
        <mxCell id="1" parent="0" />
        <mxCell id="ImPE621aUbOKIkoWXVcI-2" style="edgeStyle=orthogonalEdgeStyle;rounded=0;orthogonalLoop=1;jettySize=auto;html=1;entryX=0.5;entryY=0;entryDx=0;entryDy=0;" parent="1" source="ImPE621aUbOKIkoWXVcI-4" target="ImPE621aUbOKIkoWXVcI-5" edge="1">
          <mxGeometry relative="1" as="geometry" />
        </mxCell>
        <mxCell id="ImPE621aUbOKIkoWXVcI-3" style="edgeStyle=orthogonalEdgeStyle;rounded=0;orthogonalLoop=1;jettySize=auto;html=1;" parent="1" source="ImPE621aUbOKIkoWXVcI-4" target="ImPE621aUbOKIkoWXVcI-6" edge="1">
          <mxGeometry relative="1" as="geometry" />
        </mxCell>
        <mxCell id="ImPE621aUbOKIkoWXVcI-8" style="edgeStyle=orthogonalEdgeStyle;rounded=0;orthogonalLoop=1;jettySize=auto;html=1;" parent="1" source="ImPE621aUbOKIkoWXVcI-4" target="ImPE621aUbOKIkoWXVcI-7" edge="1">
          <mxGeometry relative="1" as="geometry" />
        </mxCell>
        <mxCell id="ImPE621aUbOKIkoWXVcI-4" value="" style="shape=image;verticalLabelPosition=bottom;labelBackgroundColor=default;verticalAlign=top;aspect=fixed;imageAspect=0;image=https://www.apache.org/logos/res/hadoop/hadoop.png;" parent="1" vertex="1">
          <mxGeometry x="276.4" y="10" width="255" height="66.3" as="geometry" />
        </mxCell>
        <mxCell id="ImPE621aUbOKIkoWXVcI-5" value="&lt;font style=&quot;font-size: 20px;&quot;&gt;HDFS&lt;/font&gt;" style="rounded=0;whiteSpace=wrap;html=1;fillColor=#e1d5e7;strokeColor=#9673a6;" parent="1" vertex="1">
          <mxGeometry x="176.4" y="130" width="100" height="40" as="geometry" />
        </mxCell>
        <mxCell id="ImPE621aUbOKIkoWXVcI-6" value="&lt;font style=&quot;font-size: 20px;&quot;&gt;MapReduce&lt;/font&gt;" style="rounded=0;whiteSpace=wrap;html=1;fillColor=#e1d5e7;strokeColor=#9673a6;" parent="1" vertex="1">
          <mxGeometry x="520" y="130" width="125" height="40" as="geometry" />
        </mxCell>
        <mxCell id="ImPE621aUbOKIkoWXVcI-7" value="&lt;span style=&quot;font-size: 20px;&quot;&gt;YARN&lt;/span&gt;" style="rounded=0;whiteSpace=wrap;html=1;fillColor=#e1d5e7;strokeColor=#9673a6;" parent="1" vertex="1">
          <mxGeometry x="341.4" y="130" width="125" height="40" as="geometry" />
        </mxCell>
        <mxCell id="ImPE621aUbOKIkoWXVcI-9" value="&lt;font style=&quot;font-size: 16px;&quot;&gt;Splitting Data into smaller chunks&lt;/font&gt;" style="text;html=1;strokeColor=#666666;fillColor=#f5f5f5;align=center;verticalAlign=middle;whiteSpace=wrap;rounded=0;fontColor=#333333;" parent="1" vertex="1">
          <mxGeometry x="176.4" y="170" width="100" height="80" as="geometry" />
        </mxCell>
        <mxCell id="ImPE621aUbOKIkoWXVcI-10" value="&lt;span style=&quot;font-size: 16px;&quot;&gt;Managing Resources&lt;/span&gt;" style="text;html=1;strokeColor=#666666;fillColor=#f5f5f5;align=center;verticalAlign=middle;whiteSpace=wrap;rounded=0;fontColor=#333333;" parent="1" vertex="1">
          <mxGeometry x="341.4" y="170" width="125" height="80" as="geometry" />
        </mxCell>
        <mxCell id="ImPE621aUbOKIkoWXVcI-12" value="&lt;span style=&quot;font-size: 16px;&quot;&gt;Parallel Processing&lt;/span&gt;" style="text;html=1;strokeColor=#666666;fillColor=#f5f5f5;align=center;verticalAlign=middle;whiteSpace=wrap;rounded=0;fontColor=#333333;" parent="1" vertex="1">
          <mxGeometry x="520" y="170" width="125" height="80" as="geometry" />
        </mxCell>
      </root>
    </mxGraphModel>
  </diagram>
</mxfile>
